WantedSans-Split-Symbol.glyphspackage
{
category = "SF-Symbol";
color = 3;
glyphname = iconCircle.medium;
layers = (
{
layerId = m01;
metricWidth = "=baseSymbol.medium";
shapes = (
{
closed = 1;
nodes = (
(1852,-318,o),
(2321,151,o),
(2321,725,cs),
(2321,1299,o),
(1852,1769,o),
(1280,1769,cs),
(706,1769,o),
(237,1299,o),
(237,725,cs),
(237,151,o),
(706,-318,o),
(1280,-318,cs)
);
},
{
closed = 1;
nodes = (
(798,-151,o),
(401,245,o),
(401,725,cs),
(401,1205,o),
(798,1602,o),
(1280,1602,cs),
(1760,1602,o),
(2157,1207,o),
(2157,725,cs),
(2157,243,o),
(1760,-151,o),
(1280,-151,cs)
);
}
);
userData = {
RMXScaler = {
height = 125;
verticalShift = -85;
width = 125;
};
};
width = 2560;
},
{
layerId = "94F54C43-8AEE-4ED6-B3C2-2A9D33534E61";
metricWidth = "=baseSymbol.medium";
shapes = (
{
closed = 1;
nodes = (
(1898,-400,o),
(2403,105,o),
(2403,725,cs),
(2403,1346,o),
(1898,1851,o),
(1280,1851,cs),
(660,1851,o),
(155,1346,o),
(155,725,cs),
(155,105,o),
(660,-400,o),
(1280,-400,cs)
);
},
{
closed = 1;
nodes = (
(839,-69,o),
(483,286,o),
(483,725,cs),
(483,1164,o),
(839,1520,o),
(1280,1520,cs),
(1719,1520,o),
(2075,1166,o),
(2075,725,cs),
(2075,284,o),
(1719,-69,o),
(1280,-69,cs)
);
}
);
userData = {
RMXScaler = {
height = 125;
verticalShift = -85;
width = 125;
};
};
width = 2560;
}
);
note = "# Required RMX Scaler

$SYMBOL_ICON
$SYMBOL_MEDIUM
$SYMBOL_OUTLINE
$SYMBOL_CIRCLE";
subCategory = Other;
unicode = 1048576;
userData = {
RMXScaler = {
source = iconCircle.small;
};
};
}
{
category = "SF-Symbol";
color = 3;
glyphname = iconSquareFill.medium;
layers = (
{
layerId = m01;
metricWidth = "=baseSymbol.medium";
shapes = (
{
closed = 1;
nodes = (
(1856,-211,ls),
(2103,-211,o),
(2214,-98,o),
(2214,149,cs),
(2214,1301,ls),
(2214,1549,o),
(2103,1662,o),
(1856,1662,cs),
(704,1662,ls),
(454,1662,o),
(343,1549,o),
(343,1301,cs),
(343,149,ls),
(343,-98,o),
(454,-211,o),
(704,-211,cs)
);
}
);
userData = {
RMXScaler = {
height = 125;
verticalShift = -85;
width = 125;
};
};
width = 2560;
},
{
layerId = "94F54C43-8AEE-4ED6-B3C2-2A9D33534E61";
shapes = (
{
closed = 1;
nodes = (
(1856,-294,ls),
(2150,-294,o),
(2298,-145,o),
(2298,149,cs),
(2298,1301,ls),
(2298,1596,o),
(2150,1745,o),
(1856,1745,cs),
(704,1745,ls),
(407,1745,o),
(260,1596,o),
(260,1301,cs),
(260,149,ls),
(260,-145,o),
(407,-294,o),
(704,-294,cs)
);
}
);
userData = {
RMXScaler = {
height = 125;
verticalShift = -85;
width = 125;
};
};
width = 2560;
}
);
note = "# Required RMX Scaler

$SYMBOL_MEDIUM
$SYMBOL_FILL
$SYMBOL_SQUARE";
subCategory = Other;
unicode = 1048723;
userData = {
RMXScaler = {
source = iconSquareFill.small;
};
};
}
{
category = "SF-Symbol";
color = 3;
glyphname = iconArrowUp.medium;
layers = (
{
layerId = m01;
metricWidth = "=baseSymbol.medium";
shapes = (
{
closed = 1;
nodes = (
(1325,-211,o),
(1361,-173,o),
(1361,-128,cs),
(1361,1380,l),
(1916,828,ls),
(1948,796,o),
(1995,796,o),
(2029,828,cs),
(2061,860,o),
(2065,907,o),
(2029,943,cs),
(1335,1636,ls),
(1303,1668,o),
(1257,1670,o),
(1222,1636,cs),
(529,943,ls),
(491,905,o),
(501,855,o),
(529,828,cs),
(561,796,o),
(610,796,o),
(642,828,cs),
(1197,1380,l),
(1197,-128,ls),
(1197,-173,o),
(1233,-211,o),
(1280,-211,cs)
);
}
);
userData = {
RMXScaler = {
height = 125;
verticalShift = -85;
width = 125;
};
};
width = 2560;
},
{
layerId = "94F54C43-8AEE-4ED6-B3C2-2A9D33534E61";
metricWidth = "=baseSymbol.medium";
shapes = (
{
closed = 1;
nodes = (
(1371,-293,o),
(1443,-219,o),
(1443,-128,cs),
(1443,1183,l),
(1857,769,ls),
(1919,706,o),
(2023,704,o),
(2088,769,cs),
(2150,831,o),
(2155,935,o),
(2088,1002,cs),
(1395,1695,ls),
(1332,1758,o),
(1228,1760,o),
(1163,1695,cs),
(470,1002,ls),
(408,940,o),
(401,835,o),
(470,769,cs),
(536,704,o),
(641,708,o),
(701,769,cs),
(1115,1183,l),
(1115,-128,ls),
(1115,-219,o),
(1187,-293,o),
(1280,-293,cs)
);
}
);
userData = {
RMXScaler = {
height = 125;
verticalShift = -85;
width = 125;
};
};
width = 2560;
}
);
note = "# Required RMX Scaler

$SYMBOL_ICON
$SYMBOL_MEDIUM";
subCategory = Other;
unicode = 1048872;
userData = {
RMXScaler = {
source = iconArrowUp.small;
};
};
}
{
category = "SF-Symbol";
color = 3;
glyphname = iconArrowLeft.medium;
layers = (
{
layerId = m01;
metricWidth = "=baseSymbol.medium";
shapes = (
{
closed = 1;
nodes = (
(1094,-58,o),
(1141,-60,o),
(1175,-26,cs),
(1207,6,o),
(1212,53,o),
(1175,90,cs),
(625,642,l),
(2133,642,ls),
(2178,642,o),
(2214,681,o),
(2214,725,cs),
(2214,770,o),
(2178,809,o),
(2133,809,cs),
(625,809,l),
(1175,1361,ls),
(1207,1393,o),
(1212,1442,o),
(1175,1476,cs),
(1143,1508,o),
(1097,1510,o),
(1062,1476,cs),
(369,783,ls),
(335,749,o),
(335,702,o),
(369,668,cs),
(1062,-26,ls)
);
}
);
userData = {
RMXScaler = {
height = 125;
verticalShift = -85;
width = 125;
};
};
width = 2560;
},
{
layerId = "94F54C43-8AEE-4ED6-B3C2-2A9D33534E61";
metricWidth = "=baseSymbol.medium";
shapes = (
{
closed = 1;
nodes = (
(1066,-147,o),
(1170,-149,o),
(1235,-85,cs),
(1297,-22,o),
(1301,82,o),
(1235,149,cs),
(822,560,l),
(2133,560,ls),
(2225,560,o),
(2297,632,o),
(2297,725,cs),
(2297,819,o),
(2225,891,o),
(2133,891,cs),
(822,891,l),
(1235,1302,ls),
(1297,1365,o),
(1301,1471,o),
(1235,1535,cs),
(1169,1600,o),
(1063,1595,o),
(1003,1535,cs),
(310,842,ls),
(245,777,o),
(245,673,o),
(310,609,cs),
(1003,-85,ls)
);
}
);
userData = {
RMXScaler = {
height = 125;
verticalShift = -85;
width = 125;
};
};
width = 2560;
}
);
note = "# Required RMX Scaler

$SYMBOL_ICON
$SYMBOL_MEDIUM";
subCategory = Other;
unicode = 1048874;
userData = {
RMXScaler = {
source = iconArrowLeft.small;
};
};
}
{
category = "SF-Symbol";
color = 3;
glyphname = iconArrowTopLeft.medium;
layers = (
{
layerId = m01;
metricWidth = "=baseSymbol.medium";
shapes = (
{
closed = 1;
nodes = (
(1841,49,o),
(1888,47,o),
(1922,81,cs),
(1954,113,o),
(1958,160,o),
(1922,196,cs),
(892,1229,l),
(1653,1229,ls),
(1698,1229,o),
(1734,1265,o),
(1734,1312,cs),
(1734,1359,o),
(1698,1395,o),
(1653,1395,cs),
(693,1395,ls),
(646,1395,o),
(610,1357,o),
(610,1312,cs),
(610,352,ls),
(610,307,o),
(646,269,o),
(693,269,cs),
(738,269,o),
(774,307,o),
(774,352,cs),
(774,1114,l),
(1809,81,ls)
);
}
);
userData = {
RMXScaler = {
height = 125;
verticalShift = -85;
width = 125;
};
};
width = 2560;
},
{
layerId = "94F54C43-8AEE-4ED6-B3C2-2A9D33534E61";
metricWidth = "=baseSymbol.medium";
shapes = (
{
closed = 1;
nodes = (
(1813,-41,o),
(1916,-43,o),
(1981,22,cs),
(2044,85,o),
(2048,188,o),
(1981,255,cs),
(1089,1147,l),
(1653,1147,ls),
(1745,1147,o),
(1817,1219,o),
(1817,1312,cs),
(1817,1405,o),
(1745,1477,o),
(1653,1477,cs),
(693,1477,ls),
(600,1477,o),
(528,1403,o),
(528,1312,cs),
(528,352,ls),
(528,261,o),
(600,187,o),
(693,187,cs),
(785,187,o),
(857,261,o),
(857,352,cs),
(857,916,l),
(1750,22,ls)
);
}
);
userData = {
RMXScaler = {
height = 125;
verticalShift = -85;
width = 125;
};
};
width = 2560;
}
);
note = "# Required RMX Scaler

$SYMBOL_ICON
$SYMBOL_MEDIUM";
subCategory = Other;
unicode = 1048878;
userData = {
RMXScaler = {
source = iconArrowTopLeft.small;
};
};
}
{
category = "SF-Symbol";
color = 3;
glyphname = iconArrowTopRight.medium;
layers = (
{
layerId = m01;
metricWidth = "=baseSymbol.medium";
shapes = (
{
closed = 1;
nodes = (
(668,49,o),
(717,49,o),
(749,81,cs),
(1783,1114,l),
(1783,352,ls),
(1783,307,o),
(1820,269,o),
(1867,269,cs),
(1911,269,o),
(1948,307,o),
(1948,352,cs),
(1948,1312,ls),
(1948,1357,o),
(1911,1395,o),
(1867,1395,cs),
(907,1395,ls),
(860,1395,o),
(823,1359,o),
(823,1312,cs),
(823,1265,o),
(860,1229,o),
(907,1229,cs),
(1666,1229,l),
(636,196,ls),
(599,160,o),
(606,111,o),
(636,81,cs)
);
}
);
userData = {
RMXScaler = {
height = 125;
verticalShift = -85;
width = 125;
};
};
width = 2560;
},
{
layerId = "94F54C43-8AEE-4ED6-B3C2-2A9D33534E61";
metricWidth = "=baseSymbol.medium";
shapes = (
{
closed = 1;
nodes = (
(642,-43,o),
(747,-37,o),
(808,22,cs),
(1701,916,l),
(1701,352,ls),
(1701,261,o),
(1773,187,o),
(1867,187,cs),
(1958,187,o),
(2030,261,o),
(2030,352,cs),
(2030,1312,ls),
(2030,1403,o),
(1958,1477,o),
(1867,1477,cs),
(907,1477,ls),
(813,1477,o),
(741,1405,o),
(741,1312,cs),
(741,1219,o),
(813,1147,o),
(907,1147,cs),
(1469,1147,l),
(577,255,ls),
(515,194,o),
(509,88,o),
(577,22,cs)
);
}
);
userData = {
RMXScaler = {
height = 125;
verticalShift = -85;
width = 125;
};
};
width = 2560;
}
);
note = "# Required RMX Scaler

$SYMBOL_ICON
$SYMBOL_MEDIUM";
subCategory = Other;
unicode = 1048879;
userData = {
RMXScaler = {
source = iconArrowTopRight.small;
};
};
}
{
category = "SF-Symbol";
color = 3;
glyphname = iconArrowBottomRight.medium;
layers = (
{
layerId = m01;
metricWidth = "=baseSymbol.medium";
shapes = (
{
closed = 1;
nodes = (
(1867,55,ls),
(1911,55,o),
(1948,94,o),
(1948,139,cs),
(1948,1099,ls),
(1948,1143,o),
(1911,1182,o),
(1867,1182,cs),
(1820,1182,o),
(1783,1143,o),
(1783,1099,cs),
(1783,337,l),
(749,1370,ls),
(717,1402,o),
(670,1402,o),
(636,1370,cs),
(604,1338,o),
(599,1291,o),
(636,1254,cs),
(1666,222,l),
(907,222,ls),
(860,222,o),
(823,186,o),
(823,139,cs),
(823,92,o),
(860,55,o),
(907,55,cs)
);
}
);
userData = {
RMXScaler = {
height = 125;
verticalShift = -85;
width = 125;
};
};
width = 2560;
},
{
layerId = "94F54C43-8AEE-4ED6-B3C2-2A9D33534E61";
shapes = (
{
closed = 1;
nodes = (
(1867,-28,ls),
(1958,-28,o),
(2031,47,o),
(2031,139,cs),
(2031,1099,ls),
(2031,1190,o),
(1958,1265,o),
(1867,1265,cs),
(1773,1265,o),
(1700,1190,o),
(1700,1099,cs),
(1700,538,l),
(809,1429,ls),
(749,1491,o),
(644,1495,o),
(576,1429,cs),
(512,1365,o),
(508,1263,o),
(576,1195,cs),
(1466,305,l),
(907,305,ls),
(813,305,o),
(740,233,o),
(740,139,cs),
(740,45,o),
(813,-28,o),
(907,-28,cs)
);
}
);
userData = {
RMXScaler = {
height = 125;
verticalShift = -85;
width = 125;
};
};
width = 2560;
}
);
note = "# Required RMX Scaler

$SYMBOL_MEDIUM";
subCategory = Other;
unicode = 1048881;
userData = {
RMXScaler = {
source = iconArrowBottomRight.small;
};
};
}
{
category = "SF-Symbol";
color = 3;
glyphname = iconClose.medium;
layers = (
{
layerId = m01;
metricWidth = "=baseSymbol.medium";
shapes = (
{
closed = 1;
nodes = (
(535,-83,o),
(582,-85,o),
(617,-51,cs),
(1280,608,l),
(1943,-51,ls),
(1975,-83,o),
(2025,-87,o),
(2059,-51,cs),
(2093,-17,o),
(2086,32,o),
(2057,62,cs),
(1397,725,l),
(2057,1389,ls),
(2089,1421,o),
(2091,1468,o),
(2059,1502,cs),
(2022,1540,o),
(1971,1530,o),
(1943,1502,cs),
(1280,843,l),
(617,1502,ls),
(582,1536,o),
(535,1534,o),
(503,1502,cs),
(471,1470,o),
(469,1423,o),
(503,1389,cs),
(1163,725,l),
(503,62,ls),
(469,28,o),
(471,-19,o),
(503,-51,cs)
);
}
);
userData = {
RMXScaler = {
height = 125;
verticalShift = -85;
width = 125;
};
};
width = 2560;
},
{
layerId = "94F54C43-8AEE-4ED6-B3C2-2A9D33534E61";
shapes = (
{
closed = 1;
nodes = (
(508,-175,o),
(610,-177,o),
(676,-111,cs),
(1280,491,l),
(1884,-111,ls),
(1948,-175,o),
(2052,-179,o),
(2118,-111,cs),
(2187,-41,o),
(2176,64,o),
(2116,122,cs),
(1515,725,l),
(2116,1329,ls),
(2178,1389,o),
(2185,1493,o),
(2118,1562,cs),
(2050,1632,o),
(1943,1621,o),
(1884,1562,cs),
(1280,960,l),
(676,1562,ls),
(610,1628,o),
(508,1626,o),
(444,1562,cs),
(380,1498,o),
(378,1395,o),
(444,1329,cs),
(1045,725,l),
(444,122,ls),
(378,55,o),
(380,-47,o),
(444,-111,cs)
);
}
);
userData = {
RMXScaler = {
height = 125;
verticalShift = -85;
width = 125;
};
};
width = 2560;
}
);
note = "# Required RMX Scaler

$SYMBOL_MEDIUM";
subCategory = Other;
unicode = 1048964;
userData = {
RMXScaler = {
source = iconClose.small;
};
};
}
{
category = "SF-Symbol";
color = 3;
glyphname = iconCheck.medium;
layers = (
{
layerId = m01;
metricWidth = "=baseSymbol.medium";
shapes = (
{
closed = 1;
nodes = (
(1099,137,o),
(1118,143,o),
(1137,162,cs),
(2099,1175,ls),
(2135,1214,o),
(2125,1263,o),
(2097,1291,cs),
(2065,1323,o),
(2014,1325,o),
(1980,1289,cs),
(1075,339,l),
(576,832,ls),
(540,868,o),
(491,862,o),
(463,834,cs),
(425,798,o),
(435,747,o),
(463,719,cs),
(1020,162,ls),
(1037,145,o),
(1060,137,o),
(1077,137,cs)
);
}
);
userData = {
RMXScaler = {
height = 125;
verticalShift = -85;
width = 125;
};
};
width = 2560;
},
{
layerId = "94F54C43-8AEE-4ED6-B3C2-2A9D33534E61";
metricWidth = "=baseSymbol.medium";
shapes = (
{
closed = 1;
nodes = (
(1117,54,o),
(1164,71,o),
(1196,106,cs),
(2158,1120,ls),
(2225,1189,o),
(2211,1294,o),
(2153,1350,cs),
(2081,1420,o),
(1978,1404,o),
(1921,1344,cs),
(1075,454,l),
(635,891,ls),
(572,953,o),
(471,957,o),
(404,893,cs),
(333,823,o),
(349,716,o),
(404,660,cs),
(961,103,ls),
(994,71,o),
(1037,54,o),
(1079,54,cs)
);
}
);
userData = {
RMXScaler = {
height = 125;
verticalShift = -85;
width = 125;
};
};
width = 2560;
}
);
note = "# Required RMX Scaler

$SYMBOL_ICON
$SYMBOL_MEDIUM";
subCategory = Other;
unicode = 1048965;
userData = {
RMXScaler = {
source = iconCheck.small;
};
};
}
{
category = "SF-Symbol";
color = 3;
glyphname = iconTriangleExclamationFill.medium;
layers = (
{
layerId = m01;
metricWidth = "=baseSymbol.medium";
shapes = (
{
closed = 1;
nodes = (
(1973,-211,ls),
(2131,-211,o),
(2223,-166,o),
(2283,-64,cs),
(2342,38,o),
(2338,143,o),
(2257,282,cs),
(1564,1466,ls),
(1483,1604,o),
(1395,1662,o),
(1280,1662,cs),
(1152,1662,o),
(1069,1594,o),
(994,1466,cs),
(303,282,ls),
(226,149,o),
(213,43,o),
(277,-66,cs),
(341,-175,o),
(439,-211,o),
(587,-211,cs)
);
},
{
closed = 1;
nodes = (
(1207,147,o),
(1152,207,o),
(1152,275,cs),
(1152,346,o),
(1207,403,o),
(1280,403,cs),
(1350,403,o),
(1408,348,o),
(1408,275,cs),
(1408,207,o),
(1353,147,o),
(1280,147,cs)
);
},
{
closed = 1;
nodes = (
(1188,1090,l),
(1372,1090,l),
(1372,521,l),
(1188,521,l)
);
}
);
userData = {
RMXScaler = {
height = 125;
verticalShift = -85;
width = 125;
};
};
width = 2560;
},
{
layerId = "94F54C43-8AEE-4ED6-B3C2-2A9D33534E61";
metricWidth = "=baseSymbol.medium";
shapes = (
{
closed = 1;
nodes = (
(1973,-293,ls),
(2180,-293,o),
(2289,-220,o),
(2357,-100,cs),
(2425,20,o),
(2428,153,o),
(2329,323,cs),
(1635,1507,ls),
(1529,1689,o),
(1408,1744,o),
(1280,1744,cs),
(1157,1744,o),
(1033,1696,o),
(922,1507,cs),
(231,323,ls),
(124,139,o),
(142,7,o),
(203,-102,cs),
(267,-216,o),
(373,-293,o),
(587,-293,cs)
);
},
{
closed = 1;
nodes = (
(1207,97,o),
(1152,155,o),
(1152,225,cs),
(1152,294,o),
(1207,353,o),
(1280,353,cs),
(1350,353,o),
(1408,296,o),
(1408,225,cs),
(1408,155,o),
(1353,97,o),
(1280,97,cs)
);
},
{
closed = 1;
nodes = (
(1163,1142,l),
(1397,1142,l),
(1397,469,l),
(1163,469,l)
);
}
);
userData = {
RMXScaler = {
height = 125;
verticalShift = -85;
width = 125;
};
};
width = 2560;
}
);
note = "# Required RMX Scaler

$SYMBOL_ICON
$SYMBOL_MEDIUM
$SYMBOL_FILL";
subCategory = Other;
unicode = 1049087;
userData = {
RMXScaler = {
source = iconTriangleExclamationFill.small;
};
};
}
{
category = "SF-Symbol";
color = 3;
glyphname = iconStarFill.medium;
layers = (
{
layerId = m01;
metricWidth = "=baseSymbol.medium";
shapes = (
{
closed = 1;
nodes = (
(1280,-34,l),
(1737,-235,ls),
(1969,-337,o),
(2025,-247,o),
(2003,-41,cs),
(1952,457,l),
(2287,828,ls),
(2443,1001,o),
(2385,1094,o),
(2185,1137,cs),
(1696,1242,l),
(1444,1675,ls),
(1382,1781,o),
(1348,1822,o),
(1280,1822,cs),
(1214,1822,o),
(1180,1781,o),
(1118,1675,cs),
(866,1242,l),
(378,1137,ls),
(177,1094,o),
(119,1001,o),
(275,828,cs),
(610,457,l),
(559,-41,ls),
(538,-247,o),
(593,-337,o),
(826,-235,cs)
);
}
);
userData = {
RMXScaler = {
height = 125;
verticalShift = -85;
width = 125;
};
};
width = 2560;
},
{
layerId = "94F54C43-8AEE-4ED6-B3C2-2A9D33534E61";
metricWidth = "=baseSymbol.medium";
shapes = (
{
closed = 1;
nodes = (
(1280,-124,l),
(1703,-309,ls),
(1985,-432,o),
(2116,-314,o),
(2085,-33,cs),
(2034,426,l),
(2348,774,ls),
(2556,1003,o),
(2452,1161,o),
(2199,1216,cs),
(1750,1315,l),
(1514,1718,ls),
(1447,1833,o),
(1389,1904,o),
(1280,1904,cs),
(1173,1904,o),
(1115,1837,o),
(1046,1718,cs),
(812,1315,l),
(362,1216,ls),
(111,1161,o),
(7,1003,o),
(214,774,cs),
(528,426,l),
(477,-33,ls),
(446,-317,o),
(580,-432,o),
(858,-309,cs)
);
}
);
userData = {
RMXScaler = {
height = 125;
verticalShift = -85;
width = 125;
};
};
width = 2560;
}
);
note = "# Required RMX Scaler

$SYMBOL_ICON
$SYMBOL_MEDIUM
$SYMBOL_FILL";
subCategory = Other;
unicode = 1049283;
userData = {
RMXScaler = {
source = iconStarFill.small;
};
};
}
{
export = 0;
glyphname = baseSymbol;
layers = (
{
layerId = m01;
shapes = (
{
closed = 1;
nodes = (
(2048,-299,l),
(2048,1749,l),
(0,1745,l),
(0,-299,l)
);
}
);
width = 2048;
},
{
layerId = "94F54C43-8AEE-4ED6-B3C2-2A9D33534E61";
shapes = (
{
closed = 1;
nodes = (
(2048,-299,l),
(2048,1749,l),
(0,1745,l),
(0,-299,l)
);
}
);
width = 2048;
}
);
}
{
category = "SF-Symbol";
color = 3;
glyphname = iconArrowBottomRight.large;
layers = (
{
layerId = m01;
metricWidth = "=baseSymbol.large";
shapes = (
{
closed = 1;
nodes = (
(2240,-66,ls),
(2289,-66,o),
(2330,-28,o),
(2330,21,cs),
(2330,1173,ls),
(2330,1222,o),
(2289,1261,o),
(2240,1261,cs),
(2193,1261,o),
(2153,1222,o),
(2153,1173,cs),
(2153,235,l),
(894,1489,ls),
(860,1523,o),
(809,1527,o),
(772,1491,cs),
(738,1457,o),
(734,1408,o),
(772,1370,cs),
(2029,109,l),
(1088,109,ls),
(1041,109,o),
(1001,70,o),
(1001,21,cs),
(1001,-28,o),
(1041,-66,o),
(1088,-66,cs)
);
}
);
userData = {
RMXScaler = {
height = 150;
verticalShift = -170;
width = 150;
};
};
width = 3072;
},
{
layerId = "94F54C43-8AEE-4ED6-B3C2-2A9D33534E61";
shapes = (
{
closed = 1;
nodes = (
(2240,-149,ls),
(2336,-149,o),
(2413,-75,o),
(2413,21,cs),
(2413,1173,ls),
(2413,1269,o),
(2336,1344,o),
(2240,1344,cs),
(2146,1344,o),
(2069,1269,o),
(2069,1173,cs),
(2069,435,l),
(954,1549,ls),
(879,1626,o),
(770,1609,o),
(713,1551,cs),
(649,1489,o),
(640,1382,o),
(713,1310,cs),
(1828,192,l),
(1088,192,ls),
(994,192,o),
(917,117,o),
(917,21,cs),
(917,-75,o),
(994,-149,o),
(1088,-149,cs)
);
}
);
userData = {
RMXScaler = {
height = 150;
verticalShift = -170;
width = 150;
};
};
width = 3072;
}
);
note = "# Required RMX Scaler

$SYMBOL_LARGE";
subCategory = Other;
userData = {
RMXScaler = {
source = iconArrowBottomRight.small;
};
};
}
{
category = "SF-Symbol";
glyphname = iconArrowLeftRight.small;
layers = (
{
layerId = m01;
shapes = (
{
closed = 1;
nodes = (
(702,213,o),
(749,213,o),
(779,245,cs),
(811,275,o),
(811,322,o),
(779,352,cs),
(484,649,l),
(1564,649,l),
(1269,352,ls),
(1237,322,o),
(1237,275,o),
(1269,245,cs),
(1299,213,o),
(1346,213,o),
(1376,245,cs),
(1803,672,ls),
(1835,702,o),
(1835,749,o),
(1803,779,cs),
(1376,1205,ls),
(1346,1237,o),
(1299,1237,o),
(1269,1205,cs),
(1237,1175,o),
(1237,1129,o),
(1269,1099,cs),
(1564,802,l),
(484,802,l),
(779,1099,ls),
(811,1129,o),
(811,1175,o),
(779,1205,cs),
(749,1237,o),
(702,1237,o),
(672,1205,cs),
(245,779,ls),
(213,749,o),
(213,702,o),
(245,672,cs),
(672,245,ls)
);
}
);
width = 2048;
},
{
layerId = "94F54C43-8AEE-4ED6-B3C2-2A9D33534E61";
shapes = (
{
closed = 1;
nodes = (
(674,122,o),
(777,122,o),
(838,186,cs),
(902,247,o),
(902,350,o),
(838,412,cs),
(685,565,l),
(1363,565,l),
(1210,412,ls),
(1146,350,o),
(1146,247,o),
(1210,186,cs),
(1271,122,o),
(1374,122,o),
(1436,186,cs),
(1862,612,ls),
(1926,674,o),
(1926,777,o),
(1862,838,cs),
(1436,1265,ls),
(1374,1329,o),
(1271,1329,o),
(1210,1265,cs),
(1146,1203,o),
(1146,1101,o),
(1210,1039,cs),
(1363,885,l),
(685,885,l),
(838,1039,ls),
(902,1101,o),
(902,1203,o),
(838,1265,cs),
(777,1329,o),
(674,1329,o),
(612,1265,cs),
(186,838,ls),
(122,777,o),
(122,674,o),
(186,612,cs),
(612,186,ls)
);
}
);
width = 2048;
}
);
metricWidth = baseSymbol;
note = $SYMBOL_SMALL;
subCategory = Other;
}
{
category = "SF-Symbol";
color = 3;
glyphname = iconArrowRight.large;
layers = (
{
layerId = m01;
metricWidth = "=baseSymbol.large";
shapes = (
{
closed = 1;
nodes = (
(1705,-205,o),
(1756,-201,o),
(1790,-166,cs),
(2622,666,ls),
(2658,702,o),
(2656,751,o),
(2622,785,cs),
(1790,1617,ls),
(1756,1651,o),
(1707,1655,o),
(1668,1619,cs),
(1634,1585,o),
(1630,1536,o),
(1668,1498,cs),
(2349,813,l),
(512,813,ls),
(465,813,o),
(425,774,o),
(425,725,cs),
(425,676,o),
(465,638,o),
(512,638,cs),
(2349,638,l),
(1668,-47,ls),
(1630,-85,o),
(1636,-137,o),
(1668,-169,cs)
);
}
);
userData = {
RMXScaler = {
height = 150;
verticalShift = -170;
width = 150;
};
};
width = 3072;
},
{
layerId = "94F54C43-8AEE-4ED6-B3C2-2A9D33534E61";
metricWidth = "=baseSymbol.large";
shapes = (
{
closed = 1;
nodes = (
(1676,-294,o),
(1784,-290,o),
(1849,-225,cs),
(2681,607,ls),
(2748,673,o),
(2746,779,o),
(2681,844,cs),
(1849,1676,ls),
(1784,1741,o),
(1678,1745,o),
(1609,1678,cs),
(1548,1616,o),
(1538,1511,o),
(1609,1439,cs),
(2152,895,l),
(512,895,ls),
(417,895,o),
(342,821,o),
(342,725,cs),
(342,630,o),
(417,556,o),
(512,556,cs),
(2152,556,l),
(1609,12,ls),
(1540,-57,o),
(1547,-165,o),
(1609,-228,cs)
);
}
);
userData = {
RMXScaler = {
height = 150;
verticalShift = -170;
width = 150;
};
};
width = 3072;
}
);
note = "# Required RMX Scaler

$SYMBOL_ICON
$SYMBOL_LARGE";
subCategory = Other;
userData = {
RMXScaler = {
source = iconArrowRight.small;
};
};
}
{
category = "SF-Symbol";
glyphname = iconArrowRight.small;
layers = (
{
layerId = m01;
shapes = (
{
closed = 1;
nodes = (
(1129,85,o),
(1175,85,o),
(1205,117,cs),
(1760,672,ls),
(1792,702,o),
(1792,749,o),
(1760,779,cs),
(1205,1333,ls),
(1175,1365,o),
(1129,1365,o),
(1099,1333,cs),
(1067,1303,o),
(1067,1257,o),
(1099,1227,cs),
(1521,802,l),
(341,802,ls),
(299,802,o),
(265,768,o),
(265,725,cs),
(265,683,o),
(299,649,o),
(341,649,cs),
(1521,649,l),
(1099,224,ls),
(1067,194,o),
(1067,147,o),
(1099,117,cs)
);
}
);
width = 2048;
},
{
layerId = "94F54C43-8AEE-4ED6-B3C2-2A9D33534E61";
shapes = (
{
closed = 1;
nodes = (
(1101,-6,o),
(1203,-6,o),
(1265,58,cs),
(1820,612,ls),
(1884,674,o),
(1884,777,o),
(1820,838,cs),
(1265,1393,ls),
(1203,1457,o),
(1101,1457,o),
(1039,1393,cs),
(975,1331,o),
(975,1229,o),
(1039,1167,cs),
(1321,885,l),
(341,885,ls),
(252,885,o),
(181,815,o),
(181,725,cs),
(181,636,o),
(252,565,o),
(341,565,cs),
(1321,565,l),
(1039,284,ls),
(975,222,o),
(975,119,o),
(1039,58,cs)
);
}
);
width = 2048;
}
);
metricWidth = baseSymbol;
note = $SYMBOL_SMALL;
subCategory = Other;
}
{
category = "SF-Symbol";
glyphname = iconArrowTopLeft.small;
layers = (
{
layerId = m01;
shapes = (
{
closed = 1;
nodes = (
(1470,171,o),
(1517,171,o),
(1547,203,cs),
(1579,233,o),
(1579,279,o),
(1547,309,cs),
(740,1118,l),
(1323,1118,ls),
(1365,1118,o),
(1399,1152,o),
(1399,1195,cs),
(1399,1237,o),
(1365,1271,o),
(1323,1271,cs),
(555,1271,ls),
(512,1271,o),
(478,1237,o),
(478,1195,cs),
(478,427,ls),
(478,384,o),
(512,350,o),
(555,350,cs),
(597,350,o),
(631,384,o),
(631,427,cs),
(631,1009,l),
(1440,203,ls)
);
}
);
width = 2048;
},
{
layerId = "94F54C43-8AEE-4ED6-B3C2-2A9D33534E61";
shapes = (
{
closed = 1;
nodes = (
(1441,81,o),
(1545,81,o),
(1606,144,cs),
(1668,204,o),
(1668,308,o),
(1606,368,cs),
(938,1036,l),
(1323,1036,ls),
(1412,1036,o),
(1482,1106,o),
(1482,1195,cs),
(1482,1284,o),
(1412,1354,o),
(1323,1354,cs),
(555,1354,ls),
(466,1354,o),
(396,1284,o),
(396,1195,cs),
(396,427,ls),
(396,338,o),
(466,268,o),
(555,268,cs),
(644,268,o),
(714,338,o),
(714,427,cs),
(714,812,l),
(1381,144,ls)
);
}
);
width = 2048;
}
);
metricWidth = baseSymbol;
note = "$SYMBOL_ICON
$SYMBOL_SMALL";
subCategory = Other;
}
{
category = "SF-Symbol";
color = 3;
glyphname = iconArrowUpDown.large;
layers = (
{
layerId = m01;
metricWidth = "=baseSymbol.large";
shapes = (
{
closed = 1;
nodes = (
(1515,-461,o),
(1564,-457,o),
(1598,-422,cs),
(2238,218,ls),
(2272,252,o),
(2274,301,o),
(2238,337,cs),
(2204,371,o),
(2155,375,o),
(2116,337,cs),
(1626,-149,l),
(1626,1600,l),
(2116,1114,ls),
(2150,1079,o),
(2202,1075,o),
(2238,1114,cs),
(2274,1150,o),
(2272,1199,o),
(2238,1233,cs),
(1598,1873,ls),
(1559,1911,o),
(1510,1907,o),
(1476,1873,cs),
(836,1233,ls),
(796,1193,o),
(806,1141,o),
(836,1111,cs),
(873,1075,o),
(924,1079,o),
(958,1114,cs),
(1449,1600,l),
(1449,-149,l),
(958,337,ls),
(924,371,o),
(873,375,o),
(836,339,cs),
(802,305,o),
(798,256,o),
(836,218,cs),
(1476,-422,ls)
);
}
);
userData = {
RMXScaler = {
height = 150;
verticalShift = -170;
width = 150;
};
};
width = 3072;
},
{
layerId = "94F54C43-8AEE-4ED6-B3C2-2A9D33534E61";
metricWidth = "=baseSymbol.large";
shapes = (
{
closed = 1;
nodes = (
(1484,-547,o),
(1589,-548,o),
(1657,-481,cs),
(2297,159,ls),
(2362,223,o),
(2364,329,o),
(2297,396,cs),
(2232,461,o),
(2126,465,o),
(2057,396,cs),
(1708,48,l),
(1708,1403,l),
(2057,1055,ls),
(2122,990,o),
(2230,986,o),
(2297,1055,cs),
(2364,1121,o),
(2362,1227,o),
(2297,1292,cs),
(1657,1932,ls),
(1588,2001,o),
(1482,1997,o),
(1417,1932,cs),
(777,1292,ls),
(713,1228,o),
(706,1121,o),
(777,1052,cs),
(844,986,o),
(952,990,o),
(1017,1055,cs),
(1366,1403,l),
(1366,48,l),
(1017,396,ls),
(949,463,o),
(842,463,o),
(777,398,cs),
(716,336,o),
(706,231,o),
(777,159,cs),
(1417,-481,ls)
);
}
);
userData = {
RMXScaler = {
height = 150;
verticalShift = -170;
width = 150;
};
};
width = 3072;
}
);
note = "# Required RMX Scaler

$SYMBOL_ICON
$SYMBOL_LARGE";
subCategory = Other;
userData = {
RMXScaler = {
source = iconArrowUpDown.small;
};
};
}
{
category = "SF-Symbol";
glyphname = iconCheck.small;
layers = (
{
layerId = m01;
shapes = (
{
closed = 1;
nodes = (
(883,243,o),
(902,252,o),
(917,267,cs),
(1687,1077,ls),
(1717,1109,o),
(1715,1156,o),
(1685,1186,cs),
(1653,1216,o),
(1606,1214,o),
(1577,1184,cs),
(860,431,l),
(469,819,ls),
(439,851,o),
(393,851,o),
(363,819,cs),
(331,789,o),
(331,742,o),
(363,713,cs),
(809,267,ls),
(821,252,o),
(843,243,o),
(862,243,cs)
);
}
);
width = 2048;
},
{
layerId = "94F54C43-8AEE-4ED6-B3C2-2A9D33534E61";
shapes = (
{
closed = 1;
nodes = (
(907,160,o),
(949,179,o),
(977,209,cs),
(1747,1020,ls),
(1809,1084,o),
(1807,1184,o),
(1743,1246,cs),
(1679,1308,o),
(1579,1306,o),
(1517,1242,cs),
(860,548,l),
(529,879,ls),
(467,943,o),
(365,943,o),
(303,879,cs),
(239,817,o),
(239,715,o),
(303,653,cs),
(749,207,ls),
(779,175,o),
(821,160,o),
(864,160,cs)
);
}
);
width = 2048;
}
);
metricWidth = baseSymbol;
note = $SYMBOL_SMALL;
subCategory = Other;
}
{
category = "SF-Symbol";
color = 3;
glyphname = iconCircleFill.large;
layers = (
{
layerId = m01;
metricWidth = "=baseSymbol.large";
shapes = (
{
closed = 1;
nodes = (
(2219,-514,o),
(2775,45,o),
(2775,725,cs),
(2775,1406,o),
(2219,1965,o),
(1536,1965,cs),
(855,1965,o),
(297,1408,o),
(297,725,cs),
(297,43,o),
(855,-514,o),
(1536,-514,cs)
);
}
);
userData = {
RMXScaler = {
height = 150;
verticalShift = -170;
width = 150;
};
};
width = 3072;
},
{
layerId = "94F54C43-8AEE-4ED6-B3C2-2A9D33534E61";
shapes = (
{
closed = 1;
nodes = (
(2266,-597,o),
(2859,-2,o),
(2859,725,cs),
(2859,1453,o),
(2266,2048,o),
(1536,2048,cs),
(809,2048,o),
(213,1455,o),
(213,725,cs),
(213,-4,o),
(809,-597,o),
(1536,-597,cs)
);
}
);
userData = {
RMXScaler = {
height = 150;
verticalShift = -170;
width = 150;
};
};
width = 3072;
}
);
note = "# Required RMX Scaler

$SYMBOL_LARGE
$SYMBOL_FILL
$SYMBOL_CIRCLE";
subCategory = Other;
userData = {
RMXScaler = {
source = iconCircleFill.small;
};
};
}
{
category = "SF-Symbol";
glyphname = iconCircleFill.small;
layers = (
{
layerId = m01;
shapes = (
{
closed = 1;
nodes = (
(1489,-119,o),
(1869,260,o),
(1869,725,cs),
(1869,1190,o),
(1489,1570,o),
(1024,1570,cs),
(559,1570,o),
(179,1190,o),
(179,725,cs),
(179,260,o),
(559,-119,o),
(1024,-119,cs)
);
}
);
width = 2048;
},
{
layerId = "94F54C43-8AEE-4ED6-B3C2-2A9D33534E61";
shapes = (
{
closed = 1;
nodes = (
(1535,-202,o),
(1951,214,o),
(1951,725,cs),
(1951,1237,o),
(1535,1652,o),
(1024,1652,cs),
(513,1652,o),
(97,1237,o),
(97,725,cs),
(97,214,o),
(513,-202,o),
(1024,-202,cs)
);
}
);
width = 2048;
}
);
metricWidth = baseSymbol;
note = "$SYMBOL_ICON
$SYMBOL_SMALL
$SYMBOL_FILL
$SYMBOL_CIRCLE";
subCategory = Other;
}
{
category = "SF-Symbol";
color = 3;
glyphname = iconClose.large;
layers = (
{
layerId = m01;
metricWidth = "=baseSymbol.large";
shapes = (
{
closed = 1;
nodes = (
(649,-237,o),
(700,-233,o),
(734,-198,cs),
(1536,602,l),
(2340,-198,ls),
(2374,-233,o),
(2426,-237,o),
(2462,-198,cs),
(2500,-160,o),
(2492,-109,o),
(2462,-79,cs),
(1662,725,l),
(2462,1530,ls),
(2496,1564,o),
(2498,1613,o),
(2462,1649,cs),
(2428,1683,o),
(2379,1687,o),
(2340,1649,cs),
(1536,851,l),
(734,1649,ls),
(700,1683,o),
(649,1687,o),
(612,1651,cs),
(578,1617,o),
(574,1568,o),
(612,1530,cs),
(1412,725,l),
(612,-79,ls),
(576,-115,o),
(578,-166,o),
(612,-201,cs)
);
}
);
userData = {
RMXScaler = {
height = 150;
verticalShift = -170;
width = 150;
};
};
width = 3072;
},
{
layerId = "94F54C43-8AEE-4ED6-B3C2-2A9D33534E61";
metricWidth = "=baseSymbol.large";
shapes = (
{
closed = 1;
nodes = (
(620,-326,o),
(728,-322,o),
(793,-257,cs),
(1536,487,l),
(2281,-257,ls),
(2346,-322,o),
(2454,-326,o),
(2521,-257,cs),
(2585,-194,o),
(2589,-89,o),
(2521,-20,cs),
(1777,725,l),
(2521,1471,ls),
(2586,1535,o),
(2588,1641,o),
(2521,1708,cs),
(2456,1773,o),
(2350,1777,o),
(2281,1708,cs),
(1536,966,l),
(793,1708,ls),
(718,1783,o),
(611,1767,o),
(553,1710,cs),
(492,1648,o),
(482,1543,o),
(553,1471,cs),
(1297,725,l),
(553,-20,ls),
(486,-87,o),
(488,-195,o),
(553,-260,cs)
);
}
);
userData = {
RMXScaler = {
height = 150;
verticalShift = -170;
width = 150;
};
};
width = 3072;
}
);
note = "# Required RMX Scaler

$SYMBOL_ICON
$SYMBOL_LARGE";
subCategory = Other;
userData = {
RMXScaler = {
source = iconClose.small;
};
};
}
{
category = "SF-Symbol";
color = 3;
glyphname = iconHeart.large;
layers = (
{
layerId = m01;
metricWidth = "=baseSymbol.large";
shapes = (
{
closed = 1;
nodes = (
(1587,-425,o),
(1632,-405,o),
(1664,-373,cs),
(2569,542,ls),
(2716,691,o),
(2775,879,o),
(2775,1058,cs),
(2775,1455,o),
(2473,1792,o),
(2067,1792,cs),
(1865,1792,o),
(1670,1705,o),
(1536,1549,c),
(1395,1713,o),
(1197,1792,o),
(1007,1792,cs),
(599,1792,o),
(297,1455,o),
(297,1058,cs),
(297,877,o),
(358,689,o),
(503,542,cs),
(1408,-373,ls),
(1446,-412,o),
(1491,-425,o),
(1536,-425,cs)
);
},
{
closed = 1;
nodes = (
(631,666,ls),
(525,774,o),
(471,919,o),
(471,1062,cs),
(471,1357,o),
(698,1615,o),
(1005,1615,cs),
(1163,1615,o),
(1321,1542,o),
(1425,1399,cs),
(1455,1359,o),
(1476,1310,o),
(1536,1310,cs),
(1591,1310,o),
(1598,1338,o),
(1647,1404,cs),
(1751,1545,o),
(1909,1615,o),
(2067,1615,cs),
(2370,1615,o),
(2601,1359,o),
(2601,1062,cs),
(2601,926,o),
(2551,779,o),
(2441,666,cs),
(1536,-252,l)
);
}
);
userData = {
RMXScaler = {
height = 150;
verticalShift = -170;
width = 150;
};
};
width = 3072;
},
{
layerId = "94F54C43-8AEE-4ED6-B3C2-2A9D33534E61";
metricWidth = "=baseSymbol.large";
shapes = (
{
closed = 1;
nodes = (
(1603,-507,o),
(1670,-482,o),
(1723,-429,cs),
(2628,486,ls),
(2787,648,o),
(2858,856,o),
(2858,1060,cs),
(2858,1511,o),
(2503,1874,o),
(2069,1874,cs),
(1877,1874,o),
(1683,1802,o),
(1536,1662,c),
(1395,1795,o),
(1204,1874,o),
(1005,1874,cs),
(567,1874,o),
(214,1509,o),
(214,1060,cs),
(214,861,o),
(281,651,o),
(444,486,cs),
(1349,-429,ls),
(1400,-480,o),
(1466,-507,o),
(1536,-507,cs)
);
},
{
closed = 1;
nodes = (
(687,722,ls),
(593,816,o),
(554,943,o),
(554,1060,cs),
(554,1319,o),
(754,1536,o),
(1005,1536,cs),
(1145,1536,o),
(1277,1469,o),
(1361,1351,cs),
(1421,1267,o),
(1451,1228,o),
(1536,1228,cs),
(1617,1228,o),
(1644,1258,o),
(1706,1345,cs),
(1800,1478,o),
(1940,1536,o),
(2067,1536,cs),
(2318,1536,o),
(2518,1318,o),
(2518,1060,cs),
(2518,928,o),
(2469,807,o),
(2385,722,cs),
(1536,-134,l)
);
}
);
userData = {
RMXScaler = {
height = 150;
verticalShift = -170;
width = 150;
};
};
width = 3072;
}
);
note = "# Required RMX Scaler

$SYMBOL_ICON
$SYMBOL_LARGE
$SYMBOL_OUTLINE";
subCategory = Other;
userData = {
RMXScaler = {
source = iconHeart.small;
};
};
}
{
category = "SF-Symbol";
glyphname = iconSquare.small;
layers = (
{
background = {
shapes = (
{
attr = {
strokeHeight = 72;
strokeWidth = 72;
};
closed = 1;
nodes = (
(1485,43,ls),
(1647,43,o),
(1707,102,o),
(1707,265,cs),
(1707,1186,ls),
(1707,1348,o),
(1647,1408,o),
(1485,1408,cs),
(563,1408,ls),
(401,1408,o),
(341,1348,o),
(341,1186,cs),
(341,265,ls),
(341,102,o),
(401,43,o),
(563,43,cs)
);
}
);
};
layerId = m01;
shapes = (
{
closed = 1;
nodes = (
(1485,-34,ls),
(1690,-34,o),
(1783,60,o),
(1783,265,cs),
(1783,1186,ls),
(1783,1391,o),
(1690,1485,o),
(1485,1485,cs),
(563,1485,ls),
(358,1485,o),
(265,1391,o),
(265,1186,cs),
(265,265,ls),
(265,60,o),
(358,-34,o),
(563,-34,cs)
);
},
{
closed = 1;
nodes = (
(444,119,o),
(418,145,o),
(418,265,cs),
(418,1186,ls),
(418,1306,o),
(444,1331,o),
(563,1331,cs),
(1485,1331,ls),
(1604,1331,o),
(1630,1306,o),
(1630,1186,cs),
(1630,265,ls),
(1630,145,o),
(1604,119,o),
(1485,119,cs),
(563,119,ls)
);
}
);
width = 2048;
},
{
associatedMasterId = m01;
layerId = "94F54C43-8AEE-4ED6-B3C2-2A9D33534E61";
name = "Sep 8, 23 10:07";
shapes = (
{
closed = 1;
nodes = (
(1438,-34,ls),
(1481,-34,o),
(1519,-34,o),
(1553,-30,cs),
(1587,-30,o),
(1617,-21,o),
(1647,-9,cs),
(1694,17,o),
(1732,55,o),
(1758,102,cs),
(1771,132,o),
(1779,162,o),
(1779,196,cs),
(1783,230,o),
(1783,269,o),
(1783,311,cs),
(1783,1139,ls),
(1783,1186,o),
(1788,1289,o),
(1758,1348,cs),
(1732,1395,o),
(1694,1434,o),
(1647,1459,cs),
(1587,1489,o),
(1485,1485,o),
(1438,1485,cs),
(610,1485,ls),
(563,1485,o),
(461,1489,o),
(401,1459,cs),
(354,1434,o),
(316,1395,o),
(290,1348,cs),
(260,1289,o),
(265,1186,o),
(265,1139,cs),
(265,311,ls),
(265,269,o),
(265,230,o),
(269,196,cs),
(269,162,o),
(277,132,o),
(290,102,cs),
(316,55,o),
(354,17,o),
(401,-9,cs),
(431,-21,o),
(461,-30,o),
(495,-30,cs),
(529,-34,o),
(567,-34,o),
(610,-34,cs)
);
},
{
closed = 1;
nodes = (
(486,124,o),
(474,128,o),
(469,128,c),
(452,141,o),
(439,154,o),
(427,171,c),
(427,175,o),
(422,188,o),
(418,209,c),
(418,316,l),
(418,1135,l),
(418,1242,ls),
(418,1263,o),
(427,1276,o),
(427,1280,c),
(439,1297,o),
(452,1310,o),
(469,1323,c),
(474,1323,o),
(486,1331,o),
(508,1331,cs),
(614,1331,l),
(1434,1331,l),
(1540,1331,l),
(1562,1327,o),
(1574,1323,o),
(1579,1323,c),
(1596,1310,o),
(1609,1297,o),
(1621,1280,c),
(1621,1276,o),
(1626,1263,o),
(1630,1242,c),
(1630,1135,l),
(1630,316,l),
(1630,209,l),
(1626,188,o),
(1621,175,o),
(1621,171,c),
(1609,154,o),
(1596,141,o),
(1579,128,c),
(1574,128,o),
(1562,124,o),
(1540,119,c),
(1434,119,l),
(614,119,l),
(508,119,l)
);
}
);
width = 2048;
},
{
layerId = "94F54C43-8AEE-4ED6-B3C2-2A9D33534E61";
shapes = (
{
closed = 1;
nodes = (
(1485,-117,ls),
(1737,-117,o),
(1867,13,o),
(1867,265,cs),
(1867,1186,ls),
(1867,1438,o),
(1737,1568,o),
(1485,1568,cs),
(563,1568,ls),
(311,1568,o),
(181,1438,o),
(181,1186,cs),
(181,265,ls),
(181,13,o),
(311,-117,o),
(563,-117,cs)
);
},
{
closed = 1;
nodes = (
(523,203,o),
(501,224,o),
(501,265,cs),
(501,1186,ls),
(501,1233,o),
(523,1248,o),
(563,1248,cs),
(1485,1248,ls),
(1532,1248,o),
(1547,1233,o),
(1547,1186,cs),
(1547,265,ls),
(1547,224,o),
(1532,203,o),
(1485,203,cs),
(563,203,ls)
);
}
);
width = 2048;
}
);
metricWidth = baseSymbol;
note = "$SYMBOL_SMALL
$SYMBOL_OUTLINE
$SYMBOL_SQUARE";
subCategory = Other;
}
{
category = "SF-Symbol";
glyphname = iconSquareFill.small;
layers = (
{
layerId = m01;
shapes = (
{
closed = 1;
nodes = (
(1485,-34,ls),
(1690,-34,o),
(1783,60,o),
(1783,265,cs),
(1783,1186,ls),
(1783,1391,o),
(1690,1485,o),
(1485,1485,cs),
(563,1485,ls),
(358,1485,o),
(265,1391,o),
(265,1186,cs),
(265,265,ls),
(265,60,o),
(358,-34,o),
(563,-34,cs)
);
}
);
width = 2048;
},
{
layerId = "94F54C43-8AEE-4ED6-B3C2-2A9D33534E61";
shapes = (
{
closed = 1;
nodes = (
(1485,-116,ls),
(1736,-116,o),
(1866,13,o),
(1866,265,cs),
(1866,1186,ls),
(1866,1437,o),
(1736,1567,o),
(1485,1567,cs),
(563,1567,ls),
(312,1567,o),
(182,1437,o),
(182,1186,cs),
(182,265,ls),
(182,13,o),
(312,-116,o),
(563,-116,cs)
);
}
);
width = 2048;
}
);
metricWidth = baseSymbol;
note = "$SYMBOL_ICON
$SYMBOL_SMALL
$SYMBOL_FILL
$SYMBOL_SQUARE";
subCategory = Other;
}
{
category = "SF-Symbol";
color = 3;
glyphname = iconStarFill.large;
layers = (
{
layerId = m01;
metricWidth = "=baseSymbol.large";
shapes = (
{
closed = 1;
nodes = (
(1536,-173,l),
(2089,-418,ls),
(2357,-538,o),
(2415,-435,o),
(2391,-196,cs),
(2332,405,l),
(2735,855,ls),
(2914,1056,o),
(2852,1158,o),
(2620,1207,cs),
(2027,1333,l),
(1724,1860,ls),
(1649,1990,o),
(1611,2029,o),
(1536,2029,cs),
(1461,2029,o),
(1423,1990,o),
(1348,1860,cs),
(1045,1333,l),
(452,1207,ls),
(201,1154,o),
(171,1041,o),
(337,855,cs),
(740,405,l),
(681,-196,ls),
(657,-435,o),
(715,-538,o),
(983,-418,cs)
);
}
);
userData = {
RMXScaler = {
height = 150;
verticalShift = -170;
width = 150;
};
};
width = 3072;
},
{
layerId = "94F54C43-8AEE-4ED6-B3C2-2A9D33534E61";
metricWidth = "=baseSymbol.large";
shapes = (
{
closed = 1;
nodes = (
(1536,-262,l),
(2055,-492,ls),
(2365,-629,o),
(2507,-509,o),
(2474,-189,cs),
(2414,375,l),
(2796,802,ls),
(3024,1056,o),
(2922,1225,o),
(2636,1287,cs),
(2080,1407,l),
(1792,1904,ls),
(1713,2042,o),
(1652,2111,o),
(1536,2111,cs),
(1420,2111,o),
(1359,2042,o),
(1280,1904,cs),
(992,1407,l),
(436,1287,ls),
(157,1226,o),
(43,1061,o),
(276,802,cs),
(658,375,l),
(598,-189,ls),
(565,-509,o),
(707,-629,o),
(1017,-492,cs)
);
}
);
userData = {
RMXScaler = {
height = 150;
verticalShift = -170;
width = 150;
};
};
width = 3072;
}
);
note = "# Required RMX Scaler

$SYMBOL_ICON
$SYMBOL_LARGE
$SYMBOL_FILL";
subCategory = Other;
userData = {
RMXScaler = {
source = iconStarFill.small;
};
};
}
{
category = "SF-Symbol";
color = 3;
glyphname = iconTriangleExclamationFill.large;
layers = (
{
layerId = m01;
metricWidth = "=baseSymbol.large";
shapes = (
{
closed = 1;
nodes = (
(2368,-386,ls),
(2534,-386,o),
(2654,-348,o),
(2731,-218,cs),
(2803,-94,o),
(2795,28,o),
(2701,188,cs),
(1869,1609,ls),
(1781,1758,o),
(1685,1837,o),
(1536,1837,cs),
(1389,1837,o),
(1293,1758,o),
(1205,1609,cs),
(373,188,ls),
(286,38,o),
(267,-83,o),
(339,-211,cs),
(412,-339,o),
(523,-386,o),
(704,-386,cs)
);
},
{
closed = 1;
nodes = (
(1451,38,o),
(1382,109,o),
(1382,192,cs),
(1382,279,o),
(1451,346,o),
(1536,346,cs),
(1623,346,o),
(1690,277,o),
(1690,192,cs),
(1690,109,o),
(1621,38,o),
(1536,38,cs)
);
},
{
closed = 1;
nodes = (
(1429,1156,l),
(1643,1156,l),
(1643,486,l),
(1429,486,l)
);
}
);
userData = {
RMXScaler = {
height = 150;
verticalShift = -170;
width = 150;
};
};
width = 3072;
},
{
layerId = "94F54C43-8AEE-4ED6-B3C2-2A9D33534E61";
metricWidth = "=baseSymbol.large";
shapes = (
{
closed = 1;
nodes = (
(2368,-468,ls),
(2611,-468,o),
(2731,-384,o),
(2805,-253,cs),
(2882,-117,o),
(2886,33,o),
(2773,229,cs),
(1941,1650,ls),
(1817,1860,o),
(1680,1919,o),
(1536,1919,cs),
(1394,1919,o),
(1257,1860,o),
(1134,1650,cs),
(302,229,ls),
(186,31,o),
(190,-119,o),
(273,-260,cs),
(356,-400,o),
(489,-468,o),
(704,-468,cs)
);
},
{
closed = 1;
nodes = (
(1451,-12,o),
(1382,57,o),
(1382,140,cs),
(1382,229,o),
(1451,294,o),
(1536,294,cs),
(1623,294,o),
(1690,227,o),
(1690,140,cs),
(1690,57,o),
(1621,-12,o),
(1536,-12,cs)
);
},
{
closed = 1;
nodes = (
(1404,1208,l),
(1668,1208,l),
(1668,436,l),
(1404,436,l)
);
}
);
userData = {
RMXScaler = {
height = 150;
verticalShift = -170;
width = 150;
};
};
width = 3072;
}
);
note = "# Required RMX Scaler

$SYMBOL_ICON
$SYMBOL_LARGE
$SYMBOL_FILL";
subCategory = Other;
userData = {
RMXScaler = {
source = iconTriangleExclamationFill.small;
};
};
}
{
category = "SF-Symbol";
glyphname = iconTriangleExclamationFill.small;
layers = (
{
layerId = m01;
shapes = (
{
closed = 1;
nodes = (
(1579,-34,ls),
(1711,-34,o),
(1788,4,o),
(1837,90,cs),
(1886,175,o),
(1882,262,o),
(1815,375,cs),
(1261,1323,ls),
(1195,1436,o),
(1122,1485,o),
(1024,1485,cs),
(926,1485,o),
(853,1436,o),
(787,1323,cs),
(233,375,ls),
(166,262,o),
(162,175,o),
(211,90,cs),
(260,4,o),
(337,-34,o),
(469,-34,cs)
);
},
{
closed = 1;
nodes = (
(966,256,o),
(922,303,o),
(922,358,cs),
(922,416,o),
(966,461,o),
(1024,461,cs),
(1082,461,o),
(1126,416,o),
(1126,358,cs),
(1126,303,o),
(1082,256,o),
(1024,256,cs)
);
},
{
closed = 1;
nodes = (
(947,1024,l),
(1101,1024,l),
(1101,555,l),
(947,555,l)
);
}
);
width = 2048;
},
{
layerId = "94F54C43-8AEE-4ED6-B3C2-2A9D33534E61";
shapes = (
{
closed = 1;
nodes = (
(1579,-116,ls),
(1765,-116,o),
(1854,-44,o),
(1909,48,cs),
(1960,141,o),
(1982,255,o),
(1887,417,cs),
(1333,1364,ls),
(1238,1525,o),
(1130,1567,o),
(1024,1567,cs),
(918,1567,o),
(810,1525,o),
(715,1364,cs),
(161,417,ls),
(66,255,o),
(88,141,o),
(139,48,cs),
(194,-44,o),
(283,-116,o),
(469,-116,cs)
);
},
{
closed = 1;
nodes = (
(966,204,o),
(922,251,o),
(922,308,cs),
(922,364,o),
(966,409,o),
(1024,409,cs),
(1082,409,o),
(1126,364,o),
(1126,308,cs),
(1126,251,o),
(1082,204,o),
(1024,204,cs)
);
},
{
closed = 1;
nodes = (
(922,1076,l),
(1126,1076,l),
(1126,503,l),
(922,503,l)
);
}
);
width = 2048;
}
);
metricWidth = baseSymbol;
note = "$SYMBOL_ICON
$SYMBOL_SMALL
$SYMBOL_FILL";
subCategory = Other;
}
